<?xml version="1.0" encoding="UTF-8"?>
<!DOCTYPE svg PUBLIC "-//W3C//DTD SVG 1.1//EN" "http://www.w3.org/Graphics/SVG/1.1/DTD/svg11.dtd">
<svg xmlns="http://www.w3.org/2000/svg" version="1.1" width="250px" height="250px" style="shape-rendering:geometricPrecision; text-rendering:geometricPrecision; image-rendering:optimizeQuality; fill-rule:evenodd; clip-rule:evenodd" xmlns:xlink="http://www.w3.org/1999/xlink">
<g><path style="opacity:1" fill="#fefefe" d="M -0.5,-0.5 C 82.8333,-0.5 166.167,-0.5 249.5,-0.5C 249.5,82.8333 249.5,166.167 249.5,249.5C 166.167,249.5 82.8333,249.5 -0.5,249.5C -0.5,166.167 -0.5,82.8333 -0.5,-0.5 Z"/></g>
<g><path style="opacity:1" fill="#4b4c4b" d="M 211.5,58.5 C 186.5,58.5 161.5,58.5 136.5,58.5C 135.5,57.1667 134.5,57.1667 133.5,58.5C 133.167,58.5 132.833,58.5 132.5,58.5C 132.334,54.4862 132.501,50.4862 133,46.5C 134.167,44 136,42.1667 138.5,41C 160.833,40.3333 183.167,40.3333 205.5,41C 208,42.1667 209.833,44 211,46.5C 211.499,50.4862 211.666,54.4862 211.5,58.5 Z"/></g>
<g><path style="opacity:1" fill="#c8c8c8" d="M 140.5,41.5 C 160.836,41.3334 181.169,41.5 201.5,42C 208.924,44.0039 211.924,48.8373 210.5,56.5C 184.833,56.5 159.167,56.5 133.5,56.5C 133.335,53.4816 133.502,50.4816 134,47.5C 135.914,45.1435 138.081,43.1435 140.5,41.5 Z"/></g>
<g><path style="opacity:1" fill="#babebc" d="M 136.5,58.5 C 161.5,58.5 186.5,58.5 211.5,58.5C 187.006,59.4977 162.339,59.831 137.5,59.5C 137.5,61.8333 137.5,64.1667 137.5,66.5C 136.833,66.5 136.5,66.1667 136.5,65.5C 136.5,63.1667 136.5,60.8333 136.5,58.5 Z"/></g>
<g><path style="opacity:1" fill="#25553c" d="M 136.5,58.5 C 136.5,60.8333 136.5,63.1667 136.5,65.5C 135.833,65.5 135.5,65.8333 135.5,66.5C 134.209,66.7373 133.209,66.404 132.5,65.5C 134.224,65.5393 134.557,65.206 133.5,64.5C 133.5,62.5 133.5,60.5 133.5,58.5C 134.5,57.1667 135.5,57.1667 136.5,58.5 Z"/></g>
<g><path style="opacity:1" fill="#a7aaa8" d="M 132.5,58.5 C 132.833,58.5 133.167,58.5 133.5,58.5C 133.5,60.5 133.5,62.5 133.5,64.5C 108.5,64.5 83.5,64.5 58.5,64.5C 82.9944,63.5023 107.661,63.169 132.5,63.5C 132.5,61.8333 132.5,60.1667 132.5,58.5 Z"/></g>
<g><path style="opacity:1" fill="#58625c" d="M 58.5,64.5 C 83.5,64.5 108.5,64.5 133.5,64.5C 134.557,65.206 134.224,65.5393 132.5,65.5C 107.498,65.3334 82.4978,65.5 57.5,66C 55,67.1667 53.1667,69 52,71.5C 51.5017,74.8168 51.335,78.1501 51.5,81.5C 80.1667,81.5 108.833,81.5 137.5,81.5C 137.666,77.1539 137.499,72.8206 137,68.5C 136.283,67.9558 135.783,67.2891 135.5,66.5C 135.5,65.8333 135.833,65.5 136.5,65.5C 136.5,66.1667 136.833,66.5 137.5,66.5C 138.117,66.6107 138.617,66.944 139,67.5C 139.167,70 139.333,72.5 139.5,75C 139.475,77.9294 138.809,80.4294 137.5,82.5C 137.167,82.5 136.833,82.5 136.5,82.5C 109.167,82.5 81.8333,82.5 54.5,82.5C 52.8333,82.5 51.1667,82.5 49.5,82.5C 47.2559,73.6534 50.2559,67.6534 58.5,64.5 Z"/></g>
<g><path style="opacity:1" fill="#cbcccb" d="M 132.5,65.5 C 133.209,66.404 134.209,66.7373 135.5,66.5C 135.783,67.2891 136.283,67.9558 137,68.5C 137.499,72.8206 137.666,77.1539 137.5,81.5C 108.833,81.5 80.1667,81.5 51.5,81.5C 51.335,78.1501 51.5017,74.8168 52,71.5C 53.1667,69 55,67.1667 57.5,66C 82.4978,65.5 107.498,65.3334 132.5,65.5 Z"/></g>
<g><path style="opacity:1" fill="#23543d" d="M 54.5,82.5 C 81.8333,82.5 109.167,82.5 136.5,82.5C 136.5,83.5 136.5,84.5 136.5,85.5C 134.304,83.4554 131.97,83.1221 129.5,84.5C 106.164,84.3334 82.831,84.5 59.5,85C 58.858,89.6007 58.1913,94.1007 57.5,98.5C 57.6657,94.1539 57.499,89.8206 57,85.5C 56.0572,88.2507 55.2239,90.9174 54.5,93.5C 54.5,89.8333 54.5,86.1667 54.5,82.5 Z"/></g>
<g><path style="opacity:1" fill="#7f807f" d="M 128.5,127.5 C 104.833,127.5 81.1667,127.5 57.5,127.5C 57.5,121.833 57.5,116.167 57.5,110.5C 59.3053,103.232 60.1386,95.5653 60,87.5C 60.414,87.0426 60.914,86.7093 61.5,86.5C 83.3314,86.1956 105.331,86.5289 127.5,87.5C 128.611,88.6113 129.278,89.9446 129.5,91.5C 128.954,96.1815 128.621,100.848 128.5,105.5C 130.967,113.002 130.967,120.336 128.5,127.5 Z"/></g>
<g><path style="opacity:1" fill="#056434" d="M 35.5,95.5 C 35.3284,94.5084 35.6618,93.8417 36.5,93.5C 36.4346,93.9382 36.6012,94.2716 37,94.5C 40.8301,90.2032 44.1634,90.5365 47,95.5C 48.677,102.646 48.8437,109.813 47.5,117C 46.9915,118.169 46.1581,119.002 45,119.5C 43.0257,119.374 40.859,119.208 38.5,119C 38,118.5 37.5,118 37,117.5C 36.8288,109.989 36.3288,102.655 35.5,95.5 Z"/></g>
<g><path style="opacity:1" fill="#1e1e1e" d="M 202.5,99.5 C 201.89,98.609 201.557,97.609 201.5,96.5C 201.511,94.9826 202.177,93.8159 203.5,93C 207.167,92.3333 210.833,92.3333 214.5,93C 217.25,96.0124 216.917,98.679 213.5,101C 209.525,101.987 205.859,101.487 202.5,99.5 Z"/></g>
<g><path style="opacity:1" fill="#cae8d9" d="M 48.5,93.5 C 45.7544,90.6946 42.4211,89.8613 38.5,91C 37.6195,91.7083 36.9528,92.5416 36.5,93.5C 35.6618,93.8417 35.3284,94.5084 35.5,95.5C 35.5,102.5 35.5,109.5 35.5,116.5C 33.9526,108.666 33.6192,100.666 34.5,92.5C 36.0915,90.0162 38.4248,89.0162 41.5,89.5C 45.2181,88.7262 47.5514,90.0596 48.5,93.5 Z"/></g>
<g><path style="opacity:1" fill="#9ecab4" d="M 136.5,82.5 C 136.833,82.5 137.167,82.5 137.5,82.5C 137.173,92.6806 137.506,102.681 138.5,112.5C 138.5,113.833 138.5,115.167 138.5,116.5C 137.833,121.5 137.167,126.5 136.5,131.5C 136.5,116.167 136.5,100.833 136.5,85.5C 136.5,84.5 136.5,83.5 136.5,82.5 Z"/></g>
<g><path style="opacity:1" fill="#b6b6b6" d="M 201.5,96.5 C 201.557,97.609 201.89,98.609 202.5,99.5C 200.097,99.393 198.264,100.393 197,102.5C 195.907,105.309 194.74,107.976 193.5,110.5C 192.833,110.5 192.167,110.5 191.5,110.5C 192.114,105.106 194.447,100.606 198.5,97C 199.448,96.5172 200.448,96.3505 201.5,96.5 Z"/></g>
<g><path style="opacity:1" fill="#f9c1bb" d="M 191.5,110.5 C 192.167,110.5 192.833,110.5 193.5,110.5C 193.5,111.167 193.5,111.833 193.5,112.5C 181.129,112.227 168.796,112.56 156.5,113.5C 155.833,113.5 155.5,113.167 155.5,112.5C 167.53,111.853 179.53,111.187 191.5,110.5 Z"/></g>
<g><path style="opacity:1" fill="#1b1918" d="M 198.5,116.5 C 197.167,115.833 196.167,114.833 195.5,113.5C 196.683,112.496 198.016,111.662 199.5,111C 205.825,110.5 212.158,110.334 218.5,110.5C 218.5,111.833 218.5,113.167 218.5,114.5C 211.654,114.009 204.988,114.676 198.5,116.5 Z"/></g>
<g><path style="opacity:1" fill="#191b19" d="M 138.5,112.5 C 144.167,112.5 149.833,112.5 155.5,112.5C 155.5,113.167 155.833,113.5 156.5,113.5C 156.011,114.995 155.345,116.329 154.5,117.5C 149.26,116.551 143.927,116.218 138.5,116.5C 138.5,115.167 138.5,113.833 138.5,112.5 Z"/></g>
<g><path style="opacity:1" fill="#2b6339" d="M 57.5,98.5 C 57.5,102.5 57.5,106.5 57.5,110.5C 57.5,116.167 57.5,121.833 57.5,127.5C 81.1667,127.5 104.833,127.5 128.5,127.5C 129.791,127.263 130.791,127.596 131.5,128.5C 106.661,128.169 81.9944,128.502 57.5,129.5C 56.0413,129.433 54.7079,129.766 53.5,130.5C 53.5,125.167 53.5,119.833 53.5,114.5C 53.5,111.167 53.5,107.833 53.5,104.5C 52.1667,104.5 50.8333,104.5 49.5,104.5C 49.6657,108.846 49.499,113.179 49,117.5C 47.3262,121.253 44.4928,122.753 40.5,122C 37.921,120.924 36.2543,119.091 35.5,116.5C 35.5,109.5 35.5,102.5 35.5,95.5C 36.3288,102.655 36.8288,109.989 37,117.5C 37.5,118 38,118.5 38.5,119C 40.859,119.208 43.0257,119.374 45,119.5C 46.1581,119.002 46.9915,118.169 47.5,117C 48.8437,109.813 48.677,102.646 47,95.5C 44.1634,90.5365 40.8301,90.2032 37,94.5C 36.6012,94.2716 36.4346,93.9382 36.5,93.5C 36.9528,92.5416 37.6195,91.7083 38.5,91C 42.4211,89.8613 45.7544,90.6946 48.5,93.5C 49.2186,95.7638 49.552,98.0971 49.5,100.5C 49.5,101.5 49.5,102.5 49.5,103.5C 50.8333,103.5 52.1667,103.5 53.5,103.5C 53.5,102.5 53.5,101.5 53.5,100.5C 54.4682,98.3926 54.8016,96.0593 54.5,93.5C 55.2239,90.9174 56.0572,88.2507 57,85.5C 57.499,89.8206 57.6657,94.1539 57.5,98.5 Z"/></g>
<g><path style="opacity:1" fill="#141916" d="M 49.5,100.5 C 50.8333,100.5 52.1667,100.5 53.5,100.5C 53.5,101.5 53.5,102.5 53.5,103.5C 52.1667,103.5 50.8333,103.5 49.5,103.5C 49.5,102.5 49.5,101.5 49.5,100.5 Z"/></g>
<g><path style="opacity:1" fill="#f70404" d="M 186.5,129.5 C 186.196,128.85 185.863,128.183 185.5,127.5C 176.896,126.087 168.229,125.254 159.5,125C 158.255,124.209 156.922,123.709 155.5,123.5C 155.5,123.167 155.5,122.833 155.5,122.5C 156.09,121.234 156.59,119.901 157,118.5C 157.249,119.624 157.749,120.624 158.5,121.5C 159.645,120.224 159.645,118.891 158.5,117.5C 159.09,116.201 160.09,115.368 161.5,115C 172.5,114.333 183.5,114.333 194.5,115C 197.791,117.332 198.291,120.165 196,123.5C 193.178,126.155 190.011,128.155 186.5,129.5 Z"/></g>
<g><path style="opacity:1" fill="#6a8677" d="M 129.5,84.5 C 130.437,97.8373 131.437,111.171 132.5,124.5C 132.768,126.099 132.434,127.432 131.5,128.5C 130.791,127.596 129.791,127.263 128.5,127.5C 130.967,120.336 130.967,113.002 128.5,105.5C 128.621,100.848 128.954,96.1815 129.5,91.5C 129.278,89.9446 128.611,88.6113 127.5,87.5C 105.331,86.5289 83.3314,86.1956 61.5,86.5C 60.914,86.7093 60.414,87.0426 60,87.5C 60.1386,95.5653 59.3053,103.232 57.5,110.5C 57.5,106.5 57.5,102.5 57.5,98.5C 58.1913,94.1007 58.858,89.6007 59.5,85C 82.831,84.5 106.164,84.3334 129.5,84.5 Z"/></g>
<g><path style="opacity:1" fill="#185a37" d="M 129.5,84.5 C 131.97,83.1221 134.304,83.4554 136.5,85.5C 136.5,100.833 136.5,116.167 136.5,131.5C 136.483,133.565 136.15,135.565 135.5,137.5C 135.747,121.021 135.413,104.355 134.5,87.5C 133.391,86.4104 132.391,86.4104 131.5,87.5C 132.48,99.783 132.813,112.116 132.5,124.5C 131.437,111.171 130.437,97.8373 129.5,84.5 Z"/></g>
<g><path style="opacity:1" fill="#de1d18" d="M 155.5,123.5 C 156.922,123.709 158.255,124.209 159.5,125C 168.229,125.254 176.896,126.087 185.5,127.5C 185.863,128.183 186.196,128.85 186.5,129.5C 186.167,129.5 185.833,129.5 185.5,129.5C 178.765,127.971 172.098,128.304 165.5,130.5C 164.237,132.029 163.237,133.695 162.5,135.5C 161.691,137.292 161.191,139.292 161,141.5C 160.329,140.748 159.496,140.414 158.5,140.5C 157.013,136.382 157.347,132.382 159.5,128.5C 158.143,126.814 156.81,125.148 155.5,123.5 Z"/></g>
<g><path style="opacity:1" fill="#8a9528" d="M 131.5,128.5 C 131.5,128.833 131.5,129.167 131.5,129.5C 107.167,129.5 82.8333,129.5 58.5,129.5C 58.5,134.167 58.5,138.833 58.5,143.5C 57.5139,139.03 57.1805,134.363 57.5,129.5C 81.9944,128.502 106.661,128.169 131.5,128.5 Z"/></g>
<g><path style="opacity:1" fill="#ce2722" d="M 193.5,112.5 C 193.842,113.338 194.508,113.672 195.5,113.5C 196.167,114.833 197.167,115.833 198.5,116.5C 198.663,118.857 198.497,121.19 198,123.5C 196.656,125.342 195.156,127.008 193.5,128.5C 196.022,133.003 196.022,137.336 193.5,141.5C 195.49,137.288 194.823,133.622 191.5,130.5C 190.472,132.44 190.472,134.44 191.5,136.5C 191.239,139.292 190.239,141.625 188.5,143.5C 190.578,138.055 189.578,133.389 185.5,129.5C 185.833,129.5 186.167,129.5 186.5,129.5C 190.011,128.155 193.178,126.155 196,123.5C 198.291,120.165 197.791,117.332 194.5,115C 183.5,114.333 172.5,114.333 161.5,115C 160.09,115.368 159.09,116.201 158.5,117.5C 159.645,118.891 159.645,120.224 158.5,121.5C 157.749,120.624 157.249,119.624 157,118.5C 156.59,119.901 156.09,121.234 155.5,122.5C 154.549,121.081 154.216,119.415 154.5,117.5C 155.345,116.329 156.011,114.995 156.5,113.5C 168.796,112.56 181.129,112.227 193.5,112.5 Z"/></g>
<g><path style="opacity:1" fill="#edd22a" d="M 131.5,129.5 C 131.768,131.099 131.434,132.432 130.5,133.5C 130.119,132.069 129.119,131.236 127.5,131C 106.167,130.333 84.8333,130.333 63.5,131C 59.7009,132.553 59.7009,133.886 63.5,135C 62.2986,135.903 61.4652,137.069 61,138.5C 60.5017,141.817 60.335,145.15 60.5,148.5C 59.8333,147.167 59.1667,145.833 58.5,144.5C 58.5,144.167 58.5,143.833 58.5,143.5C 58.5,138.833 58.5,134.167 58.5,129.5C 82.8333,129.5 107.167,129.5 131.5,129.5 Z"/></g>
<g><path style="opacity:1" fill="#fcf4f2" d="M 185.5,129.5 C 189.578,133.389 190.578,138.055 188.5,143.5C 186.95,144.441 185.284,145.107 183.5,145.5C 176.306,146.083 169.639,144.75 163.5,141.5C 162.539,139.735 162.205,137.735 162.5,135.5C 163.237,133.695 164.237,132.029 165.5,130.5C 172.098,128.304 178.765,127.971 185.5,129.5 Z"/></g>
<g><path style="opacity:1" fill="#f9f9f8" d="M 138.5,116.5 C 143.927,116.218 149.26,116.551 154.5,117.5C 154.216,119.415 154.549,121.081 155.5,122.5C 155.5,122.833 155.5,123.167 155.5,123.5C 156.81,125.148 158.143,126.814 159.5,128.5C 157.347,132.382 157.013,136.382 158.5,140.5C 159.851,142.392 160.518,144.558 160.5,147C 160.486,148.385 160.152,149.551 159.5,150.5C 151.833,150.5 144.167,150.5 136.5,150.5C 135.515,146.366 135.182,142.032 135.5,137.5C 136.15,135.565 136.483,133.565 136.5,131.5C 137.167,126.5 137.833,121.5 138.5,116.5 Z"/></g>
<g><path style="opacity:1" fill="#a9ccb9" d="M 53.5,114.5 C 53.5,119.833 53.5,125.167 53.5,130.5C 53.5,131.167 53.5,131.833 53.5,132.5C 53.8333,139.833 54.1667,147.167 54.5,154.5C 54.1667,154.5 53.8333,154.5 53.5,154.5C 53.8503,150.946 53.1837,147.612 51.5,144.5C 52.144,134.372 52.8107,124.372 53.5,114.5 Z"/></g>
<g><path style="opacity:1" fill="#fdcc02" d="M 130.5,133.5 C 130.5,142.167 130.5,150.833 130.5,159.5C 129.732,160.263 129.232,161.263 129,162.5C 128.81,168.416 128.31,174.249 127.5,180C 105.169,180.5 82.8358,180.667 60.5,180.5C 60.5,169.833 60.5,159.167 60.5,148.5C 60.335,145.15 60.5017,141.817 61,138.5C 61.4652,137.069 62.2986,135.903 63.5,135C 59.7009,133.886 59.7009,132.553 63.5,131C 84.8333,130.333 106.167,130.333 127.5,131C 129.119,131.236 130.119,132.069 130.5,133.5 Z"/></g>
<g><path style="opacity:1" fill="#ffcfc9" d="M 163.5,141.5 C 169.639,144.75 176.306,146.083 183.5,145.5C 178.36,146.488 173.026,146.821 167.5,146.5C 166.564,145.026 165.23,144.026 163.5,143.5C 163.5,142.833 163.5,142.167 163.5,141.5 Z"/></g>
<g><path style="opacity:1" fill="#1e6017" d="M 57.5,129.5 C 57.1805,134.363 57.5139,139.03 58.5,143.5C 58.5,143.833 58.5,144.167 58.5,144.5C 59.1384,156.823 59.4718,169.156 59.5,181.5C 58.5,181.5 57.5,181.5 56.5,181.5C 57.129,179.535 57.7957,177.535 58.5,175.5C 57.489,163.127 56.1557,150.961 54.5,139C 57.3903,136.294 57.057,134.128 53.5,132.5C 53.5,131.833 53.5,131.167 53.5,130.5C 54.7079,129.766 56.0413,129.433 57.5,129.5 Z"/></g>
<g><path style="opacity:1" fill="#320e10" d="M 167.5,150.5 C 173.5,150.5 179.5,150.5 185.5,150.5C 185.5,151.833 185.5,153.167 185.5,154.5C 184.206,153.71 183.039,152.71 182,151.5C 178.221,152.346 174.388,152.512 170.5,152C 170.87,153.61 170.203,155.11 168.5,156.5C 169.668,158.217 171.335,158.884 173.5,158.5C 173.5,158.833 173.5,159.167 173.5,159.5C 171.847,159.66 170.514,160.326 169.5,161.5C 167.586,158.316 166.92,154.649 167.5,150.5 Z"/></g>
<g><path style="opacity:1" fill="#242222" d="M 136.5,150.5 C 144.167,150.5 151.833,150.5 159.5,150.5C 159.5,151.833 159.5,153.167 159.5,154.5C 151.5,154.5 143.5,154.5 135.5,154.5C 135.433,153.041 135.766,151.708 136.5,150.5 Z"/></g>
<g><path style="opacity:1" fill="#cdebdb" d="M 50.5,159.5 C 45.8045,154.217 40.4711,153.384 34.5,157C 33.8742,157.75 33.3742,158.584 33,159.5C 32.5005,165.491 32.3338,171.491 32.5,177.5C 31.3467,171.347 31.18,165.014 32,158.5C 35.2351,152.81 39.7351,151.477 45.5,154.5C 49.9289,152.957 51.5956,154.624 50.5,159.5 Z"/></g>
<g><path style="opacity:1" fill="#306513" d="M 131.5,129.5 C 132.631,146.005 132.631,162.672 131.5,179.5C 137.272,178.993 138.105,181.326 134,186.5C 133.283,185.956 132.783,185.289 132.5,184.5C 134.048,184.179 134.715,183.179 134.5,181.5C 132.517,181.843 131.183,181.176 130.5,179.5C 130.5,172.833 130.5,166.167 130.5,159.5C 130.5,150.833 130.5,142.167 130.5,133.5C 131.434,132.432 131.768,131.099 131.5,129.5 Z"/></g>
<g><path style="opacity:1" fill="#37654a" d="M 50.5,159.5 C 51.12,165.926 50.4533,171.926 48.5,177.5C 43.8333,177.5 39.1667,177.5 34.5,177.5C 34.5,186.833 34.5,196.167 34.5,205.5C 33.8333,196.167 33.1667,186.833 32.5,177.5C 32.3338,171.491 32.5005,165.491 33,159.5C 33.3742,158.584 33.8742,157.75 34.5,157C 40.4711,153.384 45.8045,154.217 50.5,159.5 Z"/></g>
<g><path style="opacity:1" fill="#f4f6f3" d="M 135.5,154.5 C 143.5,154.5 151.5,154.5 159.5,154.5C 160.123,159.935 160.79,165.268 161.5,170.5C 161.5,170.833 161.5,171.167 161.5,171.5C 161.802,174.059 161.468,176.393 160.5,178.5C 152.251,174.375 143.918,170.209 135.5,166C 134.2,162.168 134.2,158.334 135.5,154.5 Z"/></g>
<g><path style="opacity:1" fill="#241616" d="M 185.5,154.5 C 186.473,156.948 186.806,159.615 186.5,162.5C 184.8,161.984 183.467,160.984 182.5,159.5C 179.572,158.516 176.572,158.183 173.5,158.5C 171.335,158.884 169.668,158.217 168.5,156.5C 170.203,155.11 170.87,153.61 170.5,152C 174.388,152.512 178.221,152.346 182,151.5C 183.039,152.71 184.206,153.71 185.5,154.5 Z"/></g>
<g><path style="opacity:1" fill="#861211" d="M 167.5,150.5 C 173.645,149.51 179.978,149.177 186.5,149.5C 187.491,155.979 187.824,162.646 187.5,169.5C 186.532,167.393 186.198,165.059 186.5,162.5C 186.806,159.615 186.473,156.948 185.5,154.5C 185.5,153.167 185.5,151.833 185.5,150.5C 179.5,150.5 173.5,150.5 167.5,150.5 Z"/></g>
<g><path style="opacity:1" fill="#056434" d="M 37.5,156.5 C 46.6944,155.608 50.6944,159.775 49.5,169C 49.4704,171.424 49.1371,173.757 48.5,176C 43.581,176.802 38.7477,176.635 34,175.5C 32.5988,168.536 33.7655,162.202 37.5,156.5 Z"/></g>
<g><path style="opacity:1" fill="#146035" d="M 53.5,132.5 C 57.057,134.128 57.3903,136.294 54.5,139C 56.1557,150.961 57.489,163.127 58.5,175.5C 57.7957,177.535 57.129,179.535 56.5,181.5C 56.1667,181.5 55.8333,181.5 55.5,181.5C 55.3744,172.491 55.041,163.491 54.5,154.5C 54.1667,147.167 53.8333,139.833 53.5,132.5 Z"/></g>
<g><path style="opacity:1" fill="#74090b" d="M 167.5,150.5 C 166.92,154.649 167.586,158.316 169.5,161.5C 169.189,162.478 168.522,163.145 167.5,163.5C 166.189,159.016 166.189,154.683 167.5,150.5 Z"/></g>
<g><path style="opacity:1" fill="#b53632" d="M 162.5,135.5 C 162.205,137.735 162.539,139.735 163.5,141.5C 163.5,142.167 163.5,142.833 163.5,143.5C 162.883,143.389 162.383,143.056 162,142.5C 161.5,151.494 161.334,160.494 161.5,169.5C 161.5,169.833 161.5,170.167 161.5,170.5C 160.79,165.268 160.123,159.935 159.5,154.5C 159.5,153.167 159.5,151.833 159.5,150.5C 160.152,149.551 160.486,148.385 160.5,147C 160.518,144.558 159.851,142.392 158.5,140.5C 159.496,140.414 160.329,140.748 161,141.5C 161.191,139.292 161.691,137.292 162.5,135.5 Z"/></g>
<g><path style="opacity:1" fill="#e70e0e" d="M 163.5,143.5 C 165.23,144.026 166.564,145.026 167.5,146.5C 168.658,147.95 168.158,148.95 166,149.5C 165.191,155.749 165.358,161.916 166.5,168C 165.095,169.269 163.429,169.769 161.5,169.5C 161.334,160.494 161.5,151.494 162,142.5C 162.383,143.056 162.883,143.389 163.5,143.5 Z"/></g>
<g><path style="opacity:1" fill="#e3241c" d="M 193.5,141.5 C 193.827,151.348 193.494,161.014 192.5,170.5C 190.708,170.366 189.042,170.699 187.5,171.5C 187.5,170.833 187.5,170.167 187.5,169.5C 187.824,162.646 187.491,155.979 186.5,149.5C 186.389,148.883 186.056,148.383 185.5,148C 187.141,146.871 188.141,145.371 188.5,143.5C 190.239,141.625 191.239,139.292 191.5,136.5C 190.472,134.44 190.472,132.44 191.5,130.5C 194.823,133.622 195.49,137.288 193.5,141.5 Z"/></g>
<g><path style="opacity:1" fill="#5d0809" d="M 173.5,159.5 C 173.5,159.167 173.5,158.833 173.5,158.5C 176.572,158.183 179.572,158.516 182.5,159.5C 183.467,160.984 184.8,161.984 186.5,162.5C 186.198,165.059 186.532,167.393 187.5,169.5C 187.5,170.167 187.5,170.833 187.5,171.5C 187.598,173.553 186.931,175.22 185.5,176.5C 185.818,171.968 185.485,167.634 184.5,163.5C 183.167,162.833 182.167,161.833 181.5,160.5C 179.052,159.527 176.385,159.194 173.5,159.5 Z"/></g>
<g><path style="opacity:1" fill="#833332" d="M 161.5,171.5 C 161.5,171.167 161.5,170.833 161.5,170.5C 166.906,169.735 168.906,172.069 167.5,177.5C 167.167,177.5 166.833,177.5 166.5,177.5C 165.659,175.621 165.325,173.621 165.5,171.5C 164.167,171.5 162.833,171.5 161.5,171.5 Z"/></g>
<g><path style="opacity:1" fill="#f10607" d="M 181.5,160.5 C 182.167,161.833 183.167,162.833 184.5,163.5C 184.5,169.167 184.5,174.833 184.5,180.5C 179.167,180.5 173.833,180.5 168.5,180.5C 168.087,175.101 168.087,169.767 168.5,164.5C 172.105,160.999 176.439,159.665 181.5,160.5 Z"/></g>
<g><path style="opacity:1" fill="#15683a" d="M 135.5,137.5 C 135.182,142.032 135.515,146.366 136.5,150.5C 135.766,151.708 135.433,153.041 135.5,154.5C 134.2,158.334 134.2,162.168 135.5,166C 143.918,170.209 152.251,174.375 160.5,178.5C 161.414,181.728 161.747,185.061 161.5,188.5C 152.651,188.174 143.984,188.507 135.5,189.5C 135.461,190.583 135.127,191.583 134.5,192.5C 108.173,193.667 81.8397,193.833 55.5,193C 54.9011,191.378 54.2344,189.878 53.5,188.5C 53.5,187.167 53.5,185.833 53.5,184.5C 53.8333,183.5 54.5,182.833 55.5,182.5C 55.5,182.833 55.5,183.167 55.5,183.5C 55.9704,184.693 56.9704,185.36 58.5,185.5C 60.2073,185.272 61.874,184.938 63.5,184.5C 63.5,185.5 63.5,186.5 63.5,187.5C 84.6892,187.302 105.356,187.302 125.5,187.5C 127.445,186.872 129.112,185.872 130.5,184.5C 131.167,184.5 131.833,184.5 132.5,184.5C 132.783,185.289 133.283,185.956 134,186.5C 138.105,181.326 137.272,178.993 131.5,179.5C 132.631,162.672 132.631,146.005 131.5,129.5C 131.5,129.167 131.5,128.833 131.5,128.5C 132.434,127.432 132.768,126.099 132.5,124.5C 132.813,112.116 132.48,99.783 131.5,87.5C 132.391,86.4104 133.391,86.4104 134.5,87.5C 135.413,104.355 135.747,121.021 135.5,137.5 Z"/></g>
<g><path style="opacity:1" fill="#be1919" d="M 188.5,143.5 C 188.141,145.371 187.141,146.871 185.5,148C 186.056,148.383 186.389,148.883 186.5,149.5C 179.978,149.177 173.645,149.51 167.5,150.5C 166.189,154.683 166.189,159.016 167.5,163.5C 168.522,163.145 169.189,162.478 169.5,161.5C 170.514,160.326 171.847,159.66 173.5,159.5C 176.385,159.194 179.052,159.527 181.5,160.5C 176.439,159.665 172.105,160.999 168.5,164.5C 168.087,169.767 168.087,175.101 168.5,180.5C 173.833,180.5 179.167,180.5 184.5,180.5C 184.5,174.833 184.5,169.167 184.5,163.5C 185.485,167.634 185.818,171.968 185.5,176.5C 185.5,176.833 185.5,177.167 185.5,177.5C 185.635,179.554 184.968,181.221 183.5,182.5C 178.833,182.5 174.167,182.5 169.5,182.5C 169.167,182.5 168.833,182.5 168.5,182.5C 168.5,181.833 168.167,181.5 167.5,181.5C 167.5,180.167 167.5,178.833 167.5,177.5C 168.906,172.069 166.906,169.735 161.5,170.5C 161.5,170.167 161.5,169.833 161.5,169.5C 163.429,169.769 165.095,169.269 166.5,168C 165.358,161.916 165.191,155.749 166,149.5C 168.158,148.95 168.658,147.95 167.5,146.5C 173.026,146.821 178.36,146.488 183.5,145.5C 185.284,145.107 186.95,144.441 188.5,143.5 Z"/></g>
<g><path style="opacity:1" fill="#7c7475" d="M 192.5,170.5 C 192.5,170.833 192.5,171.167 192.5,171.5C 191.673,176.651 191.173,181.984 191,187.5C 190.667,187.833 190.333,188.167 190,188.5C 189.082,184.72 188.249,181.054 187.5,177.5C 186.833,177.5 186.167,177.5 185.5,177.5C 185.5,177.167 185.5,176.833 185.5,176.5C 186.931,175.22 187.598,173.553 187.5,171.5C 189.042,170.699 190.708,170.366 192.5,170.5 Z"/></g>
<g><path style="opacity:1" fill="#e6f4ec" d="M 53.5,154.5 C 53.8333,154.5 54.1667,154.5 54.5,154.5C 55.041,163.491 55.3744,172.491 55.5,181.5C 55.5,181.833 55.5,182.167 55.5,182.5C 54.5,182.833 53.8333,183.5 53.5,184.5C 51.8333,184.5 50.1667,184.5 48.5,184.5C 48.5,182.167 48.5,179.833 48.5,177.5C 50.4533,171.926 51.12,165.926 50.5,159.5C 51.8249,158.047 52.6582,158.381 53,160.5C 53.4955,158.527 53.6621,156.527 53.5,154.5 Z"/></g>
<g><path style="opacity:1" fill="#c8c826" d="M 58.5,144.5 C 59.1667,145.833 59.8333,147.167 60.5,148.5C 60.5,159.167 60.5,169.833 60.5,180.5C 82.8358,180.667 105.169,180.5 127.5,180C 128.31,174.249 128.81,168.416 129,162.5C 129.232,161.263 129.732,160.263 130.5,159.5C 130.5,166.167 130.5,172.833 130.5,179.5C 129.662,179.842 129.328,180.508 129.5,181.5C 106.167,181.5 82.8333,181.5 59.5,181.5C 59.4718,169.156 59.1384,156.823 58.5,144.5 Z"/></g>
<g><path style="opacity:1" fill="#d3b8b5" d="M 166.5,177.5 C 166.833,177.5 167.167,177.5 167.5,177.5C 167.5,178.833 167.5,180.167 167.5,181.5C 166.527,183.948 166.194,186.615 166.5,189.5C 165.167,185.5 165.167,181.5 166.5,177.5 Z"/></g>
<g><path style="opacity:1" fill="#191918" d="M 48.5,177.5 C 48.5,179.833 48.5,182.167 48.5,184.5C 50.1667,184.5 51.8333,184.5 53.5,184.5C 53.5,185.833 53.5,187.167 53.5,188.5C 52.5,188.5 51.5,188.5 50.5,188.5C 48.9157,194.857 47.749,201.524 47,208.5C 44.2605,211.747 41.0939,212.247 37.5,210C 35.8588,208.871 34.8588,207.371 34.5,205.5C 34.5,196.167 34.5,186.833 34.5,177.5C 39.1667,177.5 43.8333,177.5 48.5,177.5 Z"/></g>
<g><path style="opacity:1" fill="#4db23a" d="M 55.5,181.5 C 55.8333,181.5 56.1667,181.5 56.5,181.5C 57.5,181.5 58.5,181.5 59.5,181.5C 82.8333,181.5 106.167,181.5 129.5,181.5C 130.609,182.29 131.942,182.79 133.5,183C 107.502,183.5 81.5021,183.667 55.5,183.5C 55.5,183.167 55.5,182.833 55.5,182.5C 55.5,182.167 55.5,181.833 55.5,181.5 Z"/></g>
<g><path style="opacity:1" fill="#17822e" d="M 130.5,179.5 C 131.183,181.176 132.517,181.843 134.5,181.5C 134.715,183.179 134.048,184.179 132.5,184.5C 131.833,184.5 131.167,184.5 130.5,184.5C 108.167,184.5 85.8333,184.5 63.5,184.5C 61.874,184.938 60.2073,185.272 58.5,185.5C 56.9704,185.36 55.9704,184.693 55.5,183.5C 81.5021,183.667 107.502,183.5 133.5,183C 131.942,182.79 130.609,182.29 129.5,181.5C 129.328,180.508 129.662,179.842 130.5,179.5 Z"/></g>
<g><path style="opacity:1" fill="#026528" d="M 63.5,184.5 C 85.8333,184.5 108.167,184.5 130.5,184.5C 129.112,185.872 127.445,186.872 125.5,187.5C 105.356,187.302 84.6892,187.302 63.5,187.5C 63.5,186.5 63.5,185.5 63.5,184.5 Z"/></g>
<g><path style="opacity:1" fill="#1c1c1b" d="M 169.5,182.5 C 174.167,182.5 178.833,182.5 183.5,182.5C 183.5,184.833 183.5,187.167 183.5,189.5C 184.609,190.29 185.942,190.79 187.5,191C 185.942,191.21 184.609,191.71 183.5,192.5C 183.666,198.842 183.5,205.175 183,211.5C 177.833,217.092 173.167,216.759 169,210.5C 168.5,204.175 168.334,197.842 168.5,191.5C 167.5,191.5 166.5,191.5 165.5,191.5C 166.568,190.566 167.901,190.232 169.5,190.5C 169.5,187.833 169.5,185.167 169.5,182.5 Z"/></g>
<g><path style="opacity:1" fill="#f9f8f7" d="M 167.5,181.5 C 168.167,181.5 168.5,181.833 168.5,182.5C 169.01,185.388 168.344,187.721 166.5,189.5C 166.194,186.615 166.527,183.948 167.5,181.5 Z"/></g>
<g><path style="opacity:1" fill="#f1f4ee" d="M 185.5,177.5 C 186.167,177.5 186.833,177.5 187.5,177.5C 187.5,181.5 187.5,185.5 187.5,189.5C 186.167,189.5 184.833,189.5 183.5,189.5C 183.5,187.167 183.5,184.833 183.5,182.5C 184.968,181.221 185.635,179.554 185.5,177.5 Z"/></g>
<g><path style="opacity:1" fill="#969695" d="M 192.5,171.5 C 192.666,178.175 192.5,184.842 192,191.5C 189.281,192.444 186.448,192.777 183.5,192.5C 184.609,191.71 185.942,191.21 187.5,191C 185.942,190.79 184.609,190.29 183.5,189.5C 184.833,189.5 186.167,189.5 187.5,189.5C 187.5,185.5 187.5,181.5 187.5,177.5C 188.249,181.054 189.082,184.72 190,188.5C 190.333,188.167 190.667,187.833 191,187.5C 191.173,181.984 191.673,176.651 192.5,171.5 Z"/></g>
<g><path style="opacity:1" fill="#818983" d="M 161.5,171.5 C 162.833,171.5 164.167,171.5 165.5,171.5C 165.325,173.621 165.659,175.621 166.5,177.5C 165.167,181.5 165.167,185.5 166.5,189.5C 168.344,187.721 169.01,185.388 168.5,182.5C 168.833,182.5 169.167,182.5 169.5,182.5C 169.5,185.167 169.5,187.833 169.5,190.5C 167.901,190.232 166.568,190.566 165.5,191.5C 164.432,192.434 163.099,192.768 161.5,192.5C 161.5,191.5 161.5,190.5 161.5,189.5C 153.5,189.5 145.5,189.5 137.5,189.5C 136.833,189.5 136.167,189.5 135.5,189.5C 143.984,188.507 152.651,188.174 161.5,188.5C 161.747,185.061 161.414,181.728 160.5,178.5C 161.468,176.393 161.802,174.059 161.5,171.5 Z"/></g>
<g><path style="opacity:1" fill="#ecfdf5" d="M 50.5,188.5 C 51.5,188.5 52.5,188.5 53.5,188.5C 54.2344,189.878 54.9011,191.378 55.5,193C 81.8397,193.833 108.173,193.667 134.5,192.5C 135.127,191.583 135.461,190.583 135.5,189.5C 136.167,189.5 136.833,189.5 137.5,189.5C 138.029,192.604 137.029,194.937 134.5,196.5C 133.522,196.023 132.689,195.357 132,194.5C 107.597,194.17 83.0973,194.503 58.5,195.5C 56.8333,195.333 55.1667,195.167 53.5,195C 52.1379,192.966 51.1379,190.799 50.5,188.5 Z"/></g>
</svg>
